# xmcd
#
# Track frame offsets: 
#        150
#        22880
#        46945
#        65150
#        86958
#        111863
#        133788
#        160335
#        185565
#        203065
#
# Disc length: 2955 seconds
#
# Revision: 0
# Processed by: cddbd v1.5.2PL0 Copyright (c) Steve Scherf et al.
# Submitted via: ExactAudioCopy v1.0b3
#
DISCID=8d0b890a
DTITLE=Phuong Mai, VA - Doi Nga Chia Ly
DYEAR=1991
DGENRE=
TTITLE0=Huong Lan, Duy Quang - Doi nga chia ly
TTITLE1=Phuong Mai - Mua hoa anh dao
TTITLE2=Hoang Liem - Goi ve em
TTITLE3=Phuong Mai - De tra loi mot cau hoi (Viet thu tinh)
TTITLE4=Hoang Liem - Nua dem ngoai pho
TTITLE5=Phuong Mai - Chuyen dem mua
TTITLE6=Luu Hong, Huong Lan - Sao chua thay hoi am, Ngam tho
TTITLE7=Duy Quang - Hoi am
TTITLE8=Phuong Mai - Ve duoi mai nha
TTITLE9=Duy Quang - Neu
EXTD=
EXTT0=
EXTT1=
EXTT2=
EXTT3=
EXTT4=
EXTT5=
EXTT6=
EXTT7=
EXTT8=
EXTT9=
PLAYORDER=
